<svg viewBox="0 0 705 91" fill="none" xmlns="http://www.w3.org/2000/svg">
    <path
        d="M24 90.74C17.96 90.74 12.84 89.1 8.64 85.82C4.44 82.54 1.56 78.14 0 72.62L10.62 70.1C11.26 73.02 12.8 75.5 15.24 77.54C17.72 79.58 20.56 80.6 23.76 80.6C25.84 80.6 27.96 80.1 30.12 79.1C32.28 78.06 33.94 76.38 35.1 74.06C35.9 72.46 36.36 70.7 36.48 68.78C36.6 66.82 36.66 64.52 36.66 61.88V2.6H47.46V61.88C47.46 64.36 47.44 66.58 47.4 68.54C47.4 70.5 47.2 72.38 46.8 74.18C46.44 75.94 45.72 77.74 44.64 79.58C42.48 83.38 39.58 86.2 35.94 88.04C32.34 89.84 28.36 90.74 24 90.74ZM57.1266 89L86.0466 2.6H100.927L129.847 89H118.747L91.6866 8.83999H95.0466L68.2266 89H57.1266ZM71.0466 68.78V58.76H115.927V68.78H71.0466ZM153.27 89L124.35 2.6H135.45L160.59 77.66L185.97 2.6H197.07L168.15 89H153.27ZM206.095 89V2.6H260.695V12.74H216.775V39.8H253.495V49.94H216.775V78.86H260.695V89H206.095ZM275.119 89V2.6H301.759C302.639 2.6 304.179 2.62 306.379 2.66C308.579 2.7 310.679 2.85999 312.679 3.13999C319.359 4.02 324.939 6.46 329.419 10.46C333.939 14.42 337.339 19.46 339.619 25.58C341.899 31.7 343.039 38.44 343.039 45.8C343.039 53.16 341.899 59.9 339.619 66.02C337.339 72.14 333.939 77.2 329.419 81.2C324.939 85.16 319.359 87.58 312.679 88.46C310.679 88.7 308.559 88.86 306.319 88.94C304.119 88.98 302.599 89 301.759 89H275.119ZM286.099 78.8H301.759C303.279 78.8 304.979 78.76 306.859 78.68C308.739 78.56 310.379 78.38 311.779 78.14C316.499 77.26 320.319 75.28 323.239 72.2C326.159 69.12 328.299 65.28 329.659 60.68C331.019 56.08 331.699 51.12 331.699 45.8C331.699 40.36 330.999 35.34 329.599 30.74C328.239 26.14 326.099 22.32 323.179 19.28C320.259 16.24 316.459 14.3 311.779 13.46C310.379 13.18 308.719 13 306.799 12.92C304.879 12.84 303.199 12.8 301.759 12.8H286.099V78.8ZM380.822 89V2.6H414.962C415.802 2.6 416.802 2.64 417.962 2.72C419.122 2.76 420.242 2.88 421.322 3.08C426.002 3.8 429.922 5.4 433.082 7.87999C436.282 10.36 438.682 13.5 440.282 17.3C441.882 21.06 442.682 25.24 442.682 29.84C442.682 36.52 440.942 42.32 437.462 47.24C433.982 52.12 428.882 55.18 422.162 56.42L418.082 57.08H391.502V89H380.822ZM432.242 89L415.202 53.84L425.762 50.6L444.482 89H432.242ZM391.502 46.94H414.602C415.362 46.94 416.222 46.9 417.182 46.82C418.182 46.74 419.122 46.6 420.002 46.4C422.762 45.76 425.002 44.6 426.722 42.92C428.482 41.2 429.762 39.2 430.562 36.92C431.362 34.6 431.762 32.24 431.762 29.84C431.762 27.44 431.362 25.1 430.562 22.82C429.762 20.5 428.482 18.48 426.722 16.76C425.002 15.04 422.762 13.88 420.002 13.28C419.122 13.04 418.182 12.9 417.182 12.86C416.222 12.78 415.362 12.74 414.602 12.74H391.502V46.94ZM451.697 89L480.617 2.6H495.497L524.417 89H513.317L486.257 8.83999H489.617L462.797 89H451.697ZM465.617 68.78V58.76H510.497V68.78H465.617ZM563.474 90.8C557.354 90.8 551.834 89.76 546.914 87.68C542.034 85.6 537.994 82.64 534.794 78.8C531.634 74.92 529.574 70.34 528.614 65.06L539.654 63.32C541.054 68.76 543.954 73.02 548.354 76.1C552.794 79.14 558.014 80.66 564.014 80.66C567.894 80.66 571.394 80.06 574.514 78.86C577.674 77.62 580.174 75.86 582.014 73.58C583.854 71.3 584.774 68.6 584.774 65.48C584.774 63.56 584.434 61.92 583.754 60.56C583.114 59.16 582.214 57.98 581.054 57.02C579.934 56.02 578.654 55.18 577.214 54.5C575.774 53.82 574.274 53.26 572.714 52.82L550.694 46.28C548.294 45.56 545.974 44.66 543.734 43.58C541.494 42.46 539.494 41.08 537.734 39.44C535.974 37.76 534.574 35.76 533.534 33.44C532.494 31.08 531.974 28.3 531.974 25.1C531.974 19.98 533.294 15.62 535.934 12.02C538.614 8.37999 542.234 5.6 546.794 3.68C551.354 1.76 556.494 0.819997 562.214 0.859994C568.014 0.899996 573.194 1.94 577.754 3.98C582.354 5.97999 586.154 8.86 589.154 12.62C592.194 16.38 594.234 20.88 595.274 26.12L583.934 28.1C583.334 24.58 581.994 21.56 579.914 19.04C577.874 16.48 575.314 14.52 572.234 13.16C569.154 11.76 565.774 11.04 562.094 11C558.574 10.96 555.394 11.52 552.554 12.68C549.714 13.84 547.454 15.46 545.774 17.54C544.094 19.58 543.254 21.94 543.254 24.62C543.254 27.26 544.014 29.4 545.534 31.04C547.054 32.64 548.914 33.92 551.114 34.88C553.354 35.8 555.534 36.56 557.654 37.16L574.094 41.9C575.974 42.42 578.134 43.14 580.574 44.06C583.054 44.98 585.454 46.28 587.774 47.96C590.094 49.6 592.014 51.8 593.534 54.56C595.054 57.28 595.814 60.72 595.814 64.88C595.814 69.04 594.974 72.74 593.294 75.98C591.654 79.22 589.354 81.94 586.394 84.14C583.434 86.3 579.994 87.94 576.074 89.06C572.154 90.22 567.954 90.8 563.474 90.8ZM609.6 89V2.6H620.28V89H609.6ZM638.283 89V2.6H649.083L694.143 70.1V2.6H704.943V89H694.143L649.083 21.44V89H638.283Z"
        fill="gray" />
</svg>