<svg version="1.1" xmlns="http://www.w3.org/2000/svg" viewBox="0 0 217.89703805528404 65.3803350056485">
    <!-- svg-source:excalidraw -->
    <metadata></metadata>
    <defs>
        <style class="style-fonts">
        </style>
    </defs>
    <rect x="0" y="0" fill="transparent"></rect>
    <g stroke-linecap="round">
        <g
            transform="translate(165.38273295861688 -50.196346199185264) rotate(247.5325331272545 -56.988495229946295 82.70116596500183)">
            <path
                d="M-0.89 -0.57 C-11.73 12.88, -46.72 52.4, -65.68 80.26 C-84.63 108.11, -106.36 152.43, -114.6 166.55 M0.85 1.74 C-10.1 15.39, -47.21 54.3, -66.63 81.48 C-86.06 108.66, -107.55 150.75, -115.7 164.81"
                stroke="#a6a09b" stroke-width="2" fill="none"></path>
        </g>
        <g
            transform="translate(165.38273295861688 -50.196346199185264) rotate(247.5325331272545 -56.988495229946295 82.70116596500183)">
            <path
                d="M-111.83 140.11 C-113.85 146.2, -114.85 151.33, -115.7 164.81 M-111.83 140.11 C-113.13 150.8, -114.58 159.96, -115.7 164.81"
                stroke="#a6a09b" stroke-width="2" fill="none"></path>
        </g>
        <g
            transform="translate(165.38273295861688 -50.196346199185264) rotate(247.5325331272545 -56.988495229946295 82.70116596500183)">
            <path
                d="M-96.86 148.38 C-102.57 152.3, -107.29 155.37, -115.7 164.81 M-96.86 148.38 C-104 155.74, -111.37 161.63, -115.7 164.81"
                stroke="#a6a09b" stroke-width="2" fill="none"></path>
        </g>
    </g>
    <mask></mask>
</svg>