<svg viewBox="0 0 827 150" fill="none" xmlns="http://www.w3.org/2000/svg">
    <path
        d="M46.32 122.2C43.36 122.2 40.68 122.04 38.28 121.72C35.96 121.4 34.8 121.24 34.8 121.24V109.12C34.8 109.12 35.84 109.24 37.92 109.48C40 109.64 42.12 109.72 44.28 109.72C50.2 109.72 54.92 108.28 58.44 105.4C61.96 102.52 63.72 97.44 63.72 90.16V32.2H77.76V90.28C77.76 96.6 76.6 102.16 74.28 106.96C71.96 111.76 68.48 115.52 63.84 118.24C59.28 120.88 53.44 122.2 46.32 122.2ZM89.5266 121L120.487 32.2H138.487L169.567 121H154.807L147.967 101.08H111.127L104.287 121H89.5266ZM115.327 88.6H143.767L129.607 47.2L115.327 88.6ZM197.908 121L166.948 32.2H181.708L207.028 106L232.228 32.2H246.988L215.908 121H197.908ZM259.198 121V32.2H317.158V44.44H273.238V69.76H311.638V81.88H273.238V108.76H317.758V121H259.198ZM334.433 121V32.2H364.793C371.913 32.2 378.153 33.48 383.513 36.04C388.873 38.52 393.313 41.88 396.833 46.12C400.433 50.36 403.113 55.12 404.873 60.4C406.713 65.68 407.633 71.08 407.633 76.6C407.633 82.12 406.713 87.52 404.873 92.8C403.113 98.08 400.433 102.84 396.833 107.08C393.313 111.32 388.873 114.72 383.513 117.28C378.153 119.76 371.913 121 364.793 121H334.433ZM364.193 44.44H348.473V108.64H364.193C369.153 108.64 373.473 107.76 377.153 106C380.833 104.16 383.873 101.72 386.273 98.68C388.673 95.56 390.473 92.12 391.673 88.36C392.953 84.52 393.593 80.6 393.593 76.6C393.593 72.6 392.953 68.68 391.673 64.84C390.473 61 388.673 57.56 386.273 54.52C383.873 51.48 380.833 49.04 377.153 47.2C373.473 45.36 369.153 44.44 364.193 44.44ZM478.104 121V32.2H511.104C517.424 32.2 522.744 33.44 527.064 35.92C531.464 38.32 534.784 41.52 537.024 45.52C539.264 49.44 540.384 53.72 540.384 58.36C540.384 63.96 538.784 69.04 535.584 73.6C532.464 78.16 527.864 81.36 521.784 83.2L543.144 121H527.424L507.264 84.76H492.144V121H478.104ZM510.864 44.44H492.144V73H510.864C515.904 73 519.704 71.56 522.264 68.68C524.824 65.72 526.104 62.4 526.104 58.72C526.104 55.04 524.824 51.76 522.264 48.88C519.704 45.92 515.904 44.44 510.864 44.44ZM555.698 121L586.658 32.2H604.658L635.738 121H620.978L614.138 101.08H577.298L570.458 121H555.698ZM581.498 88.6H609.938L595.778 47.2L581.498 88.6ZM677.929 122.2C672.649 122.2 668.089 121.52 664.249 120.16C660.489 118.8 657.369 117.08 654.889 115C652.409 112.84 650.409 110.56 648.889 108.16C647.449 105.76 646.369 103.52 645.649 101.44C644.929 99.28 644.449 97.52 644.209 96.16C643.969 94.8 643.849 94.12 643.849 94.12H658.129C658.129 94.12 658.249 94.68 658.489 95.8C658.729 96.84 659.209 98.16 659.929 99.76C660.649 101.28 661.729 102.84 663.169 104.44C664.689 105.96 666.649 107.28 669.049 108.4C671.529 109.44 674.649 109.96 678.409 109.96C684.009 109.96 688.369 108.64 691.489 106C694.689 103.36 696.289 100 696.289 95.92C696.289 92.4 695.089 89.68 692.689 87.76C690.369 85.76 686.929 84.24 682.369 83.2L670.609 80.44C666.209 79.48 662.129 78.08 658.369 76.24C654.689 74.32 651.689 71.76 649.369 68.56C647.129 65.36 646.009 61.32 646.009 56.44C646.009 51.16 647.289 46.64 649.849 42.88C652.489 39.04 656.089 36.12 660.649 34.12C665.289 32.04 670.569 31 676.489 31C682.249 31 687.009 31.88 690.769 33.64C694.529 35.32 697.529 37.4 699.769 39.88C702.009 42.36 703.649 44.88 704.689 47.44C705.809 49.92 706.529 52.04 706.849 53.8C707.169 55.48 707.329 56.32 707.329 56.32H693.649C693.649 56.32 693.489 55.68 693.169 54.4C692.849 53.04 692.089 51.48 690.889 49.72C689.769 47.96 688.009 46.44 685.609 45.16C683.289 43.8 680.129 43.12 676.129 43.12C670.609 43.12 666.489 44.4 663.769 46.96C661.049 49.52 659.689 52.36 659.689 55.48C659.689 58.52 660.849 60.96 663.169 62.8C665.489 64.56 668.609 65.88 672.529 66.76L685.129 69.76C689.769 70.8 693.969 72.36 697.729 74.44C701.569 76.52 704.609 79.28 706.849 82.72C709.089 86.08 710.209 90.2 710.209 95.08C710.209 100.04 708.969 104.6 706.489 108.76C704.089 112.84 700.489 116.12 695.689 118.6C690.889 121 684.969 122.2 677.929 122.2ZM724.433 121V32.2H738.473V121H724.433ZM756.659 121V32.2H769.379L812.939 96.04V32.2H826.979V121H814.139L770.579 57.76V121H756.659Z"
        fill="white" />
    <line x1="4.95304" y1="6.88792" x2="435.877" y2="5.62149" stroke="white" />
    <line x1="435.164" y1="142.958" x2="434.757" y2="4.74568" stroke="white" />
    <line x1="4.85687" y1="144.299" x2="4.45069" y2="6.08707" stroke="white" />
    <line x1="5.35878" y1="144.947" x2="436.283" y2="143.68" stroke="white" />
    <rect y="2.11604" width="9.87796" height="10.4196" transform="rotate(-0.168385 0 2.11604)" fill="#D9D9D9" />
    <rect x="429.69" y="0.853233" width="9.87796" height="10.4196" transform="rotate(-0.168385 429.69 0.853233)"
        fill="#D9D9D9" />
    <rect x="430.091" y="137.61" width="9.87796" height="10.4196" transform="rotate(-0.168385 430.091 137.61)"
        fill="#D9D9D9" />
    <rect x="1.63666" y="138.869" width="9.87796" height="10.4196" transform="rotate(-0.168385 1.63666 138.869)"
        fill="#D9D9D9" />
</svg>